<svg viewBox="0 -10 512.001 512" xmlns="http://www.w3.org/2000/svg"><path d="M10.227 112.504v265.402c0 11.54 9.43 20.969 20.968 20.969h286.543a90.946 90.946 0 0 1-.574-10.207c0-11.027 1.934-21.59 5.484-31.39h-26.05V153.413h101.254V297.09a92.75 92.75 0 0 1 11.617-.727c10.75 0 21.07 1.84 30.652 5.215V112.504zm0 0" fill="#f7f7f7"/><path d="M440.121 31.195v81.309H10.227V31.195c0-11.539 9.43-20.968 20.968-20.968h387.961c11.535 0 20.965 9.43 20.965 20.968zm0 0" fill="#7df5a5"/><path d="M50.79 153.414h204.55v122.73H50.79zm0 0" fill="#ffa3bf"/><path d="M397.852 153.414V297.09c-34.836 4.379-63.625 28.156-75.204 60.187h-26.05V153.414zm0 0" fill="#ffc954"/><path d="M501.773 388.668c0 50.973-41.332 92.3-92.304 92.3-47.528 0-86.668-35.917-91.73-82.093a90.946 90.946 0 0 1-.575-10.207c0-11.027 1.934-21.59 5.484-31.39 11.579-32.032 40.368-55.81 75.204-60.188a92.75 92.75 0 0 1 11.617-.727c10.75 0 21.07 1.84 30.652 5.215 35.91 12.633 61.652 46.856 61.652 87.09zm0 0" fill="#7df5a5"/><path d="M195.344 71.934h202.504c5.648 0 10.226-4.579 10.226-10.227 0-5.648-4.578-10.227-10.226-10.227H195.344c-5.649 0-10.23 4.579-10.23 10.227 0 5.648 4.581 10.227 10.23 10.227zM52.262 65.621c.258.613.574 1.207.941 1.758a9.551 9.551 0 0 0 1.27 1.555c.468.472.992.902 1.554 1.28.551.368 1.145.684 1.77.942a10.11 10.11 0 0 0 3.906.777c.664 0 1.34-.062 1.992-.195a10.82 10.82 0 0 0 1.926-.582 10.549 10.549 0 0 0 1.758-.941 10.276 10.276 0 0 0 1.555-1.281 9.551 9.551 0 0 0 1.27-1.555c.378-.55.683-1.145.94-1.758a10.365 10.365 0 0 0 .786-3.918c0-.664-.07-1.34-.203-1.992a9.847 9.847 0 0 0-.582-1.914 9.596 9.596 0 0 0-.942-1.77 9.72 9.72 0 0 0-1.27-1.554 9.737 9.737 0 0 0-1.554-1.266 10.27 10.27 0 0 0-1.758-.941c-.625-.258-1.27-.45-1.926-.586a10.08 10.08 0 0 0-5.898.586 9.955 9.955 0 0 0-1.77.941 9.737 9.737 0 0 0-1.554 1.266 9.72 9.72 0 0 0-1.27 1.554 10.358 10.358 0 0 0-.941 1.77 9.847 9.847 0 0 0-.582 1.914c-.133.652-.203 1.328-.203 1.992s.07 1.34.203 2.004c.12.645.328 1.29.582 1.914zm40.91 0c.258.613.574 1.207.941 1.758a9.551 9.551 0 0 0 1.27 1.555 10.141 10.141 0 0 0 3.324 2.222 10.11 10.11 0 0 0 3.906.777c.664 0 1.34-.062 1.992-.195a10.82 10.82 0 0 0 1.926-.582 10.549 10.549 0 0 0 1.758-.941 10.276 10.276 0 0 0 1.555-1.281c.472-.47.902-.993 1.281-1.555.363-.55.672-1.145.93-1.758a10.365 10.365 0 0 0 .785-3.918c0-.664-.07-1.34-.203-1.992a9.847 9.847 0 0 0-.582-1.914 10.588 10.588 0 0 0-.93-1.77 10.472 10.472 0 0 0-1.281-1.554 9.737 9.737 0 0 0-1.555-1.266 10.27 10.27 0 0 0-1.758-.941c-.625-.258-1.27-.45-1.926-.586a10.08 10.08 0 0 0-5.898.586 9.955 9.955 0 0 0-1.77.941 9.737 9.737 0 0 0-1.554 1.266 9.72 9.72 0 0 0-1.27 1.554 10.358 10.358 0 0 0-.941 1.77 9.847 9.847 0 0 0-.582 1.914c-.133.652-.203 1.328-.203 1.992s.07 1.34.203 2.004a11 11 0 0 0 .582 1.914zm40.91 0c.258.613.563 1.207.93 1.758.379.562.808 1.086 1.281 1.555a10.115 10.115 0 0 0 3.325 2.222 10.11 10.11 0 0 0 3.906.777c2.687 0 5.328-1.085 7.23-3a10.25 10.25 0 0 0 2.207-3.313 9.8 9.8 0 0 0 .582-1.913c.133-.664.207-1.34.207-2.004s-.074-1.34-.207-1.996a9.376 9.376 0 0 0-.582-1.91 9.457 9.457 0 0 0-.938-1.77 9.977 9.977 0 0 0-1.27-1.554c-2.37-2.375-5.901-3.47-9.226-2.793a10.322 10.322 0 0 0-3.68 1.523 9.967 9.967 0 0 0-1.558 1.27 10.49 10.49 0 0 0-1.277 1.554 10.204 10.204 0 0 0-.93 1.77 9.628 9.628 0 0 0-.582 1.91c-.133.656-.203 1.332-.203 1.996s.07 1.34.203 2.004c.121.645.328 1.29.582 1.914zm121.262 241.207h-88.465c-5.645 0-10.227 4.578-10.227 10.227 0 5.648 4.582 10.226 10.227 10.226h88.465c5.648 0 10.226-4.578 10.226-10.226 0-5.649-4.578-10.227-10.226-10.227zM50.793 327.281h34.266c5.648 0 10.23-4.578 10.23-10.226 0-5.649-4.582-10.227-10.23-10.227H50.793c-5.648 0-10.227 4.578-10.227 10.227 0 5.648 4.579 10.226 10.227 10.226zm204.551 20.453H50.793c-5.648 0-10.227 4.582-10.227 10.23 0 5.65 4.579 10.227 10.227 10.227h204.55c5.65 0 10.227-4.578 10.227-10.226 0-5.649-4.578-10.23-10.226-10.23zm10.187-195.121a6.96 6.96 0 0 0-.125-.984c-.027-.149-.05-.297-.086-.441a18.379 18.379 0 0 0-.273-.996 25.18 25.18 0 0 0-.156-.426c-.07-.18-.141-.36-.223-.536-.055-.125-.117-.246-.18-.37-.09-.184-.187-.364-.289-.544-.031-.05-.054-.109-.086-.164-.039-.066-.09-.125-.129-.191a10.327 10.327 0 0 0-.613-.867 9.024 9.024 0 0 0-.68-.781c-.093-.098-.191-.192-.293-.29-.14-.132-.285-.265-.437-.394a6.47 6.47 0 0 0-.309-.25 9.492 9.492 0 0 0-.46-.348c-.122-.082-.247-.16-.368-.242a10.507 10.507 0 0 0-.449-.27c-.145-.082-.297-.16-.45-.238-.136-.066-.269-.133-.405-.195a9.96 9.96 0 0 0-.528-.215c-.125-.047-.254-.098-.383-.14a9.188 9.188 0 0 0-.558-.168 6.749 6.749 0 0 0-.403-.106 12.802 12.802 0 0 0-1.015-.18c-.16-.02-.32-.035-.485-.047a9.129 9.129 0 0 0-.57-.03c-.078 0-.156-.012-.234-.012H50.793c-.082 0-.16.011-.242.011a13.563 13.563 0 0 0-1.051.078c-.156.024-.312.047-.469.075a8.46 8.46 0 0 0-.945.21 7.969 7.969 0 0 0-.566.172c-.125.043-.25.09-.375.137-.176.07-.356.14-.532.219-.133.058-.27.125-.402.191-.152.078-.305.156-.453.239-.153.085-.297.18-.445.27-.125.081-.25.16-.372.241-.156.11-.308.227-.46.348a8.543 8.543 0 0 0-.746.648 9.33 9.33 0 0 0-.668.7 8.923 8.923 0 0 0-.594.753c-.114.16-.22.317-.32.48-.044.067-.09.126-.133.192-.032.055-.055.114-.086.164-.102.18-.2.36-.29.543-.062.125-.124.25-.18.371a6.992 6.992 0 0 0-.218.536c-.055.144-.11.285-.156.425a10.49 10.49 0 0 0-.149.496c-.046.165-.09.333-.128.5-.036.149-.06.293-.086.442a9.698 9.698 0 0 0-.086.574c-.02.137-.028.274-.04.41a10.7 10.7 0 0 0-.03.617c0 .063-.012.122-.012.184v122.73c0 .063.011.122.011.184.004.207.016.41.032.617.011.137.02.274.039.407.02.191.05.382.086.574.027.148.05.297.086.445.039.168.082.332.128.5.047.164.094.332.149.492.047.145.098.285.156.426.067.184.137.36.219.535.055.125.117.25.18.371.09.188.187.368.289.543.03.055.054.11.086.164.03.051.07.094.097.141.18.289.371.562.574.828.055.07.106.149.164.219.243.297.504.582.778.851.097.094.203.184.3.274.196.176.395.348.602.508.117.09.235.18.356.261.246.18.504.34.765.493.074.043.14.09.211.128.348.192.703.36 1.07.508.079.032.157.055.235.086.297.114.598.211.902.293.11.031.219.059.324.086.286.067.579.125.872.168.113.016.222.035.335.05.356.04.715.063 1.079.067.039 0 .078.008.117.008h204.531c.035 0 .074-.008.113-.008a10.94 10.94 0 0 0 1.078-.066c.114-.016.223-.035.332-.05.297-.044.59-.102.875-.169l.325-.082a9.19 9.19 0 0 0 .91-.3c.074-.028.152-.051.226-.083a9.98 9.98 0 0 0 1.075-.508c.066-.039.129-.082.195-.12.27-.157.531-.32.785-.5.113-.087.23-.172.344-.258a9.65 9.65 0 0 0 .61-.516c.1-.09.198-.176.296-.27.277-.27.535-.554.781-.851.055-.07.106-.145.16-.215.208-.266.399-.543.575-.828.031-.05.07-.094.097-.14.036-.055.059-.114.09-.169.102-.175.196-.355.29-.539.062-.125.12-.25.179-.375.078-.172.148-.351.219-.531.054-.145.11-.285.156-.426.055-.164.102-.332.148-.496.047-.164.09-.332.13-.5.03-.148.058-.297.081-.445.036-.192.067-.38.09-.57.016-.137.028-.274.04-.41.015-.208.027-.41.03-.618 0-.062.008-.121.008-.183v-122.73c0-.063-.007-.122-.007-.185a10.698 10.698 0 0 0-.032-.617zM61.023 171.477l72.168 43.3-72.168 43.301zm26.696-7.836h130.699l-65.352 39.21zm65.351 63.066l65.352 39.211H87.719zm19.88-11.93l72.167-43.3v86.601zM440.406 378.59h-20.625v-20.625c0-5.649-4.578-10.23-10.226-10.23-5.649 0-10.227 4.581-10.227 10.23v20.625h-20.625c-5.648 0-10.23 4.578-10.23 10.226 0 5.649 4.582 10.227 10.23 10.227h20.625v20.625c0 5.648 4.578 10.23 10.227 10.23 5.648 0 10.226-4.582 10.226-10.23v-20.625h20.625c5.649 0 10.23-4.578 10.23-10.227 0-5.648-4.581-10.226-10.23-10.226zm0 0"/><path d="M450.348 294.648V31.195C450.348 13.996 436.355 0 419.156 0H31.196C13.995 0 0 13.996 0 31.195v346.711c0 17.2 13.996 31.196 31.195 31.196h277.793c9.496 46.777 50.942 82.097 100.48 82.097C466.005 491.2 512 445.203 512 388.668c0-42.016-25.402-78.2-61.652-94.02zM31.195 20.457h387.961c5.922 0 10.739 4.816 10.739 10.738v71.082H20.453V31.195c0-5.922 4.82-10.738 10.742-10.738zm-10.742 357.45V122.73h409.442v165.45a102.65 102.65 0 0 0-20.426-2.043c-.465 0-.926.011-1.39.015V153.414c0-5.648-4.579-10.227-10.227-10.227H296.598c-5.645 0-10.227 4.579-10.227 10.227v203.863c0 5.649 4.582 10.23 10.227 10.23h12.543a102.46 102.46 0 0 0-2.204 21.138H31.195c-5.922 0-10.742-4.817-10.742-10.739zm295.32-30.856h-8.945V163.64h80.797v124.843c-32.164 7.008-58.738 29.153-71.852 58.567zm93.696 123.691c-45.258 0-82.074-36.82-82.074-82.074 0-45.258 36.816-82.078 82.074-82.078s82.078 36.82 82.078 82.078c0 45.254-36.82 82.074-82.078 82.074zm0 0"/><path d="M117.125 322.738a9.75 9.75 0 0 0 1.27 1.559c.468.469.992.898 1.554 1.265s1.156.688 1.77.942a10.1 10.1 0 0 0 1.91.582c.656.133 1.332.207 1.996.207.676 0 1.34-.074 2.004-.207.656-.133 1.3-.324 1.914-.582a10.835 10.835 0 0 0 1.77-.942 10.9 10.9 0 0 0 1.554-1.265c.469-.473.887-.996 1.266-1.559.367-.55.687-1.144.941-1.765.258-.618.45-1.258.582-1.914s.207-1.329.207-1.993c0-.668-.074-1.34-.207-2.007a10.73 10.73 0 0 0-.582-1.91 10.27 10.27 0 0 0-.941-1.758 9.943 9.943 0 0 0-1.266-1.559c-.48-.48-1.004-.898-1.554-1.277a11.316 11.316 0 0 0-1.77-.942 10.418 10.418 0 0 0-1.914-.582 10.139 10.139 0 0 0-4 0c-.652.133-1.297.328-1.91.582a10.6 10.6 0 0 0-1.77.942 9.806 9.806 0 0 0-1.554 1.277 9.75 9.75 0 0 0-1.27 1.559 10.25 10.25 0 0 0-.938 1.757c-.257.625-.453 1.27-.585 1.91-.133.669-.204 1.34-.204 2.008 0 .664.07 1.34.204 1.993.132.656.328 1.3.585 1.914.254.62.57 1.214.938 1.765zm0 0"/></svg>