<?xml version="1.0" encoding="UTF-8"?>
<!DOCTYPE svg PUBLIC "-//W3C//DTD SVG 1.1//EN" "http://www.w3.org/Graphics/SVG/1.1/DTD/svg11.dtd">
<!-- Creator: CorelDRAW X7 -->
<svg xmlns="http://www.w3.org/2000/svg" xml:space="preserve" width="285.546mm" height="83.4868mm" version="1.1" style="shape-rendering:geometricPrecision; text-rendering:geometricPrecision; image-rendering:optimizeQuality; fill-rule:evenodd; clip-rule:evenodd"
viewBox="0 0 28555 8349"
 xmlns:xlink="http://www.w3.org/1999/xlink">
 <defs>
  <style type="text/css">
   <![CDATA[
    .fil11 {fill:#9D231F}
    .fil13 {fill:url(#id0);fill-rule:nonzero}
    .fil18 {fill:url(#id1);fill-rule:nonzero}
    .fil14 {fill:url(#id2);fill-rule:nonzero}
    .fil6 {fill:url(#id3);fill-rule:nonzero}
    .fil16 {fill:url(#id4);fill-rule:nonzero}
    .fil4 {fill:url(#id5);fill-rule:nonzero}
    .fil8 {fill:url(#id6);fill-rule:nonzero}
    .fil3 {fill:url(#id7);fill-rule:nonzero}
    .fil19 {fill:url(#id8);fill-rule:nonzero}
    .fil20 {fill:url(#id9);fill-rule:nonzero}
    .fil0 {fill:url(#id10);fill-rule:nonzero}
    .fil12 {fill:url(#id11);fill-rule:nonzero}
    .fil9 {fill:url(#id12);fill-rule:nonzero}
    .fil1 {fill:url(#id13);fill-rule:nonzero}
    .fil15 {fill:url(#id14);fill-rule:nonzero}
    .fil10 {fill:url(#id15);fill-rule:nonzero}
    .fil17 {fill:url(#id16);fill-rule:nonzero}
    .fil5 {fill:url(#id17);fill-rule:nonzero}
    .fil21 {fill:url(#id18);fill-rule:nonzero}
    .fil7 {fill:url(#id19);fill-rule:nonzero}
    .fil2 {fill:url(#id20);fill-rule:nonzero}
   ]]>
  </style>
  <linearGradient id="id0" gradientUnits="userSpaceOnUse" x1="23971" y1="4542.67" x2="24374.1" y2="4542.46">
   <stop offset="0" style="stop-opacity:1; stop-color:#D21F3D"/>
   <stop offset="0.501961" style="stop-opacity:1; stop-color:#EB5F30"/>
   <stop offset="0.878431" style="stop-opacity:1; stop-color:#EC691F"/>
   <stop offset="0.929412" style="stop-opacity:1; stop-color:#EC691F"/>
   <stop offset="1" style="stop-opacity:1; stop-color:#EC691F"/>
  </linearGradient>
  <linearGradient id="id1" gradientUnits="userSpaceOnUse" xlink:href="#id0" x1="15190.9" y1="6207.58" x2="15412.7" y2="6207.58">
  </linearGradient>
  <linearGradient id="id2" gradientUnits="userSpaceOnUse" xlink:href="#id0" x1="24451.5" y1="4919.22" x2="24686.3" y2="4919.08">
  </linearGradient>
  <linearGradient id="id3" gradientUnits="userSpaceOnUse" xlink:href="#id0" x1="12779.5" y1="3893.45" x2="13108.5" y2="3893.81">
  </linearGradient>
  <linearGradient id="id4" gradientUnits="userSpaceOnUse" xlink:href="#id0" x1="15103.7" y1="5071.29" x2="15512" y2="5071.65">
  </linearGradient>
  <linearGradient id="id5" gradientUnits="userSpaceOnUse" xlink:href="#id0" x1="12046" y1="2841.73" x2="12375" y2="2841.73">
  </linearGradient>
  <linearGradient id="id6" gradientUnits="userSpaceOnUse" xlink:href="#id0" x1="13791.4" y1="2481.56" x2="14114.3" y2="2481.77">
  </linearGradient>
  <linearGradient id="id7" gradientUnits="userSpaceOnUse" xlink:href="#id0" x1="11995.6" y1="4106.92" x2="12322.1" y2="4106.28">
  </linearGradient>
  <linearGradient id="id8" gradientUnits="userSpaceOnUse" xlink:href="#id0" x1="15824.3" y1="7170.21" x2="16053.7" y2="7170.07">
  </linearGradient>
  <linearGradient id="id9" gradientUnits="userSpaceOnUse" xlink:href="#id0" x1="16224.1" y1="7660.36" x2="16453.6" y2="7660.79">
  </linearGradient>
  <linearGradient id="id10" gradientUnits="userSpaceOnUse" xlink:href="#id0" x1="13777.4" y1="4011.7" x2="20054.3" y2="4005.69">
  </linearGradient>
  <linearGradient id="id11" gradientUnits="userSpaceOnUse" xlink:href="#id0" x1="24449.4" y1="3904.59" x2="25130.3" y2="3904.24">
  </linearGradient>
  <linearGradient id="id12" gradientUnits="userSpaceOnUse" xlink:href="#id0" x1="17000.8" y1="7599.52" x2="17275.4" y2="7599.95">
  </linearGradient>
  <linearGradient id="id13" gradientUnits="userSpaceOnUse" xlink:href="#id0" x1="14327.7" y1="3948.07" x2="14733.8" y2="3947.43">
  </linearGradient>
  <linearGradient id="id14" gradientUnits="objectBoundingBox" xlink:href="#id0" x1="0%" y1="48.6271%" x2="93.2711%" y2="48.0755%">
  </linearGradient>
  <linearGradient id="id15" gradientUnits="userSpaceOnUse" xlink:href="#id0" x1="15993" y1="6084.39" x2="16269.3" y2="6084.61">
  </linearGradient>
  <linearGradient id="id16" gradientUnits="userSpaceOnUse" xlink:href="#id0" x1="16338" y1="6995.77" x2="16614.4" y2="6995.77">
  </linearGradient>
  <linearGradient id="id17" gradientUnits="userSpaceOnUse" xlink:href="#id0" x1="11039.6" y1="4255.2" x2="11368" y2="4254.62">
  </linearGradient>
  <linearGradient id="id18" gradientUnits="userSpaceOnUse" xlink:href="#id0" x1="15041.6" y1="7085" x2="15271.1" y2="7084.71">
  </linearGradient>
  <linearGradient id="id19" gradientUnits="userSpaceOnUse" xlink:href="#id0" x1="12987" y1="2305.69" x2="13316.4" y2="2305.05">
  </linearGradient>
  <linearGradient id="id20" gradientUnits="userSpaceOnUse" xlink:href="#id0" x1="13547.9" y1="3637.44" x2="13953.8" y2="3637.44">
  </linearGradient>
 </defs>
 <g id="Layer_x0020_1">
  <metadata id="CorelCorpID_0Corel-Layer"/>
  <g id="_1894569152">
   <path class="fil0" d="M17729 5875l-131 -33 -12 -49c-2,-14 -2,-34 -2,-49 -2,-39 -4,-77 -5,-115l-502 23c-2,72 8,390 26,440l496 -21 -3 -93 101 21 162 44 5 106 -116 109c-61,28 -290,21 -381,29l2 69 -510 -117 -6 -75 -302 11 10 271 299 -15c10,-18 5,-37 18,-53 25,6 478,99 495,127 9,25 13,83 5,113l-159 232 -154 8 10 269 304 -14c14,-233 -68,-166 73,-366 94,-134 69,-52 361,-91 26,-9 15,-41 13,-73 -11,-160 -31,-198 31,-254 121,-109 68,-111 295,-115 -60,134 -294,363 -377,781 -2,9 -4,24 -7,31 -13,46 -2,32 -164,46l10 269 127 -5c3,189 38,373 83,545 25,98 114,403 156,468 24,-104 29,-274 41,-387 44,-390 99,-662 341,-950 110,-132 310,-252 543,-316 322,-89 701,-66 765,-81 2,0 5,-2 7,-2 2,-1 5,-1 7,-3 67,22 436,6 523,-5 163,-20 297,-71 354,-188 116,-241 -99,-457 -41,-696 20,-79 71,-116 97,-183 24,-9 131,-190 142,-212 53,-101 71,-192 -9,-267 146,-122 113,-161 60,-341 -59,-201 34,-219 181,-281 332,-139 393,-228 199,-575 -160,-287 -318,-417 -402,-580 -138,-268 -145,-487 -180,-811 -95,-629 -322,-1084 -712,-1511 -36,-40 -331,-325 -403,-341 -56,-96 -535,-309 -673,-358 -129,-46 -257,-84 -396,-118 -424,-104 -736,-124 -1160,-143 352,230 854,683 867,1428l-346 -119 -10 -216c-67,-1 -212,-5 -261,17 -43,-7 -44,5 -80,-15l-174 -124c-78,-54 -152,-107 -229,-163l-21 -371 -441 20 17 392c334,-14 231,-39 586,219 51,38 112,85 162,116l6 140 -470 291c-2,-3 -3,-9 -4,-8 -6,20 0,-13 -16,-43 -167,-1 -408,38 -561,25 -75,-6 -295,-174 -387,-200 -75,-80 -146,-23 -150,-149 -2,-37 -3,-74 -6,-111l-441 21 6 175c-115,16 -249,51 -366,76 -78,16 -306,74 -371,72l-4 -87 -354 16 11 313 358 -14 -4 -89 735 -156c12,98 -11,99 -128,233l-170 204c-25,32 -98,121 -118,136l-316 19c-13,61 10,312 13,392l444 -21c-1,-63 -5,-126 -8,-188 -7,-132 -23,-129 22,-179 66,-74 123,-151 188,-224 65,-72 123,-149 187,-224 91,-104 33,-62 327,-84 14,-26 3,-12 8,-28l11 -29c29,18 61,41 92,44 19,23 5,9 28,24 12,8 23,13 36,20 34,20 194,104 201,119l19 396c-47,18 -119,71 -168,101 -60,37 -108,69 -167,105 -85,52 -75,69 -200,74 -59,2 -201,3 -250,15l15 390 436 -22 8 -49 505 102c3,64 2,42 -95,105 -42,27 -82,55 -123,82 -66,42 -187,132 -254,160l-7 -155 -727 35 28 639c103,20 586,-26 730,-30l-15 -332 373 -245c109,-71 82,-63 236,-70 100,-5 198,-10 299,-16 16,-26 1,-6 7,-25 1,-2 2,-5 3,-7l5 -14c1,-2 2,-6 3,-8l347 97c56,20 136,32 183,56l20 417 358 -18 23 450 -90 4 -420 20 -18 -378 -206 10 -19 -394 -729 36 31 641 527 -23 32 633 -169 9 0 106 -341 -108c-188,-61 -103,-42 -132,-251l-438 18c-10,47 6,225 9,294 1,15 1,35 2,49l9 40c0,2 2,6 3,8 36,0 402,-8 430,-29l18 -24 447 145 11 194 -325 225c-73,52 -81,75 -191,79 -91,4 -180,10 -272,13l18 387c51,13 365,-11 441,-16l-10 -299c38,-15 129,-83 169,-111 60,-42 116,-75 169,-117l16 40 721 -36 -5 -180c78,12 158,50 236,48 30,27 104,22 147,51l16 308 226 -11 24 486 -212 14 2 121 -123 -30zm-51 -1057c-84,-32 -199,-30 -269,-73 -12,-38 -22,-214 -11,-257l236 -12 148 -7 -18 -436 348 -17 -19 -427c84,-5 459,-33 509,-18l21 442 -203 10c2,95 36,502 21,555l-432 22 -15 42 -211 9 6 190 -111 -23zm-128 -3323c54,-2 198,4 242,-24l9 -8c15,-7 5,-8 30,0 3,0 24,9 28,10 84,31 189,71 273,94 -24,35 -116,95 -155,127 -84,67 -66,63 -202,69 -175,9 -350,19 -526,26l36 644 583 -29 -8 -229 653 -30 24 576 -621 31c-99,-14 105,-39 -290,-19 -105,5 -208,10 -316,16l4 161 -172 -48 -364 -102 -13 -195 -438 20 -19 50c-522,-95 -497,-45 -495,-209 58,-26 148,-89 209,-127 37,-23 66,-43 103,-67 69,-44 -27,15 118,6 213,-13 426,-21 640,-32 19,-59 -14,-343 -12,-433l458 -286c18,1 13,4 18,6 10,4 -3,2 20,8l183 -6z"/>
   <polygon class="fil1" points="14356,3770 14375,4161 14815,4140 14800,3750 "/>
   <polygon class="fil2" points="13576,3460 13590,3850 14034,3830 14016,3441 "/>
   <path class="fil3" d="M12024 3964c-15,49 5,247 8,312 52,7 313,-3 355,-18l-12 -310 -351 16z"/>
   <path class="fil4" d="M12070 2701l13 308c43,15 293,-6 358,-10l-15 -316 -356 18z"/>
   <path class="fil5" d="M11063 4118l13 309 357 -17 -15 -311c-51,-9 -314,3 -355,19z"/>
   <polygon class="fil6" points="12803,3752 12818,4067 13174,4050 13161,3734 "/>
   <polygon class="fil7" points="13010,2165 13025,2476 13382,2463 13368,2147 "/>
   <polygon class="fil8" points="13814,2340 13825,2653 14179,2639 14168,2323 "/>
   <path class="fil9" d="M17025 7478c-11,42 -1,230 12,268l293 -5 -5 -276 -300 13z"/>
   <polygon class="fil10" points="16012,5962 16021,6229 16325,6218 16315,5951 "/>
   <path class="fil11" d="M27323 5951c-18,-79 -182,-409 -225,-463 -185,198 -464,321 -863,275 -327,-37 -498,-291 -540,-620l1694 -2c133,-1772 -1820,-1698 -2200,-605 -266,765 87,1884 1365,1725 363,-46 509,-134 769,-310zm-1599 -1264l1038 -1c-105,-636 -919,-592 -1038,1z"/>
   <path class="fil11" d="M22540 4336l289 1 547 684c-33,59 -73,104 -110,157l-553 768c-57,80 -194,247 -224,325l761 2c133,-137 408,-603 541,-748 100,66 487,724 561,749l749 0c-62,-119 -1498,-1922 -1671,-2133 -72,-87 -177,-215 -230,-307l-659 1 -1 501z"/>
   <path class="fil11" d="M27695 3823l134 4 4 2441 722 -1 -1 -488 -138 -10 -7 -2365c-114,-39 -567,-17 -717,-15l3 434z"/>
   <path class="fil11" d="M21403 4481c-1,237 -26,270 47,292 11,4 74,7 93,9l-1 1486 710 -1 -3 -484 -146 -12 1 -1426 -702 -5 1 141z"/>
   <path class="fil11" d="M22462 3192c-215,-639 -925,-456 -1092,-228 -423,578 34,1163 535,1089 463,-69 399,-606 11,-507 -152,39 -240,-70 -253,-147 -67,-395 458,-565 799,-207z"/>
   <path class="fil12" d="M24456 4303l484 2 -2 -465c343,-66 345,146 324,-329l-320 -7 -6 315 -479 1 -1 483z"/>
   <polygon class="fil13" points="24454,4782 24456,4303 23980,4306 23975,4778 "/>
   <polygon class="fil14" points="24454,4782 24458,5053 24728,5057 24734,4781 "/>
   <polygon class="fil15" points="1967,4758 1967,6444 1651,6444 1661,5023 1130,6444 839,6444 301,5031 316,6444 0,6444 0,4758 521,4758 976,6009 986,6009 1436,4758 "/>
   <path id="1" class="fil15" d="M3509 4758l318 0 0 1124c0,183 -32,321 -97,416 -65,96 -198,147 -401,154 -15,0 -30,0 -45,1 -15,1 -31,1 -46,1 -17,2 -33,3 -48,3 -15,0 -30,0 -45,0 -224,0 -400,-26 -526,-79 -127,-52 -190,-211 -190,-476l0 -1144 324 0 0 1140c0,123 26,202 77,235 51,34 133,51 244,51l111 -3c106,2 187,-11 242,-39 54,-28 82,-99 82,-214l0 -42 0 -1128z"/>
   <polygon id="2" class="fil15" points="4606,4758 4606,5446 4757,5446 5319,4758 5716,4758 5033,5580 5786,6444 5377,6444 4757,5721 4606,5721 4606,6444 4282,6444 4282,4758 "/>
   <polygon id="3" class="fil15" points="6724,5044 6724,6444 6398,6444 6398,5044 5910,5044 5910,4758 7220,4758 7220,5044 "/>
   <path id="4" class="fil15" d="M8554 4758l0 1181c0,195 -39,330 -116,405 -78,75 -216,113 -415,113 -172,0 -311,-25 -417,-73 -106,-49 -159,-175 -159,-377l0 -223 306 0c0,14 -1,27 -2,38 0,12 -1,23 -1,33 0,12 0,24 0,36 0,11 0,23 0,35 0,98 12,165 34,202 23,37 88,56 194,56 94,0 160,-16 197,-48 37,-32 56,-96 56,-192l0 -43 0 -1143 323 0z"/>
   <polygon id="5" class="fil15" points="9335,4758 9335,6444 9011,6444 9011,4758 "/>
   <polygon id="6" class="fil15" points="10862,4758 11196,4758 10652,6444 10164,6444 9626,4758 9957,4758 10409,6174 "/>
   <path id="7" class="fil15" d="M12497 6121l-730 0 -104 323 -336 0 561 -1686 475 0 572 1686 -329 0 -109 -323zm-73 -241l-293 -874 -289 874 582 0z"/>
   <polygon id="8" class="fil15" points="14800,4758 14800,6444 14264,6444 13551,5034 13541,5034 13551,6444 13238,6444 13238,4758 13771,4758 14484,6169 14494,6169 14484,4758 "/>
   <polygon class="fil16" points="15132,4895 15150,5279 15593,5266 15576,4880 "/>
   <polygon class="fil17" points="16357,6874 16370,7135 16669,7124 16657,6866 "/>
   <polygon class="fil18" points="15206,6107 15212,6324 15457,6313 15449,6100 "/>
   <polygon class="fil19" points="15840,7070 15851,7286 16099,7277 16089,7063 "/>
   <polygon class="fil20" points="16240,7560 16250,7777 16499,7767 16489,7553 "/>
   <polygon class="fil21" points="15057,6985 15068,7201 15316,7192 15306,6978 "/>
  </g>
 </g>
</svg>
