<svg xmlns="http://www.w3.org/2000/svg" viewBox="0 0 512 512"><path d="M37 458V54c0-24.301 19.699-44 44-44s44 19.699 44 44v404H37z" fill="#ffb954"/><path d="M125 458h330c11.046 0 20-8.954 20-20V74c0-11.046-8.954-20-20-20H125v401.212" fill="#fff"/><path d="M420.451 465.09V482c0 11.046-8.954 20-20 20H81c-24.301 0-44-19.699-44-44s19.699-44 44-44 44 19.699 44 44" fill="#feda9b"/><path fill="#ff5d5d" d="M173 254h138.76v96H173z"/><path fill="#36d28f" d="M173 94h254v112H173z"/><path d="M125 358c-2.63 0-5.21 1.069-7.07 2.93S115 365.37 115 368s1.069 5.21 2.93 7.069c1.86 1.86 4.44 2.931 7.07 2.931s5.21-1.07 7.069-2.931C133.93 373.21 135 370.63 135 368s-1.07-5.21-2.931-7.07A10.067 10.067 0 0 0 125 358z"/><path d="M455 44H134.057C129.352 18.988 107.358 0 81 0 51.225 0 27 24.224 27 54v404c0 29.775 24.225 54 54 54h319.451c16.542 0 30-13.458 30-30v-14H455c16.542 0 30-13.458 30-30V74c0-16.542-13.458-30-30-30zm-44.549 438c0 5.514-4.486 10-10 10H81c-18.748 0-34-15.252-34-34s15.252-34 34-34 34 15.252 34 34c0 5.522 4.478 10 10 10h285.451v14zM465 438c0 5.514-4.486 10-10 10H134.072c-4.704-25.014-26.713-44-53.072-44-12.877 0-24.71 4.537-34 12.088V54c0-18.748 15.252-34 34-34s34 15.252 34 34v272c0 5.522 4.478 10 10 10s10-4.478 10-10V64h320c5.514 0 10 4.486 10 10v364z"/><path d="M173 360h138.759c5.522 0 10-4.478 10-10v-96c0-5.523-4.478-10-10-10H173c-5.522 0-10 4.477-10 10v96c0 5.522 4.478 10 10 10zm10-96h118.759v76H183v-76zM427 84H173c-5.522 0-10 4.477-10 10v112c0 5.523 4.478 10 10 10h254c5.522 0 10-4.477 10-10V94c0-5.523-4.478-10-10-10zm-244 25.338L275.215 150 183 190.662v-81.324zM220.464 104h159.072L300 139.071 220.464 104zM300 160.929L379.536 196H220.464L300 160.929zM324.785 150L417 109.338v81.324L324.785 150zM427 388c-2.63 0-5.21 1.069-7.07 2.93S417 395.37 417 398s1.069 5.21 2.93 7.069c1.86 1.86 4.44 2.931 7.07 2.931s5.21-1.07 7.069-2.931C435.93 403.21 437 400.63 437 398s-1.07-5.21-2.931-7.07A10.067 10.067 0 0 0 427 388zm-48 0H173c-5.522 0-10 4.478-10 10s4.478 10 10 10h206c5.522 0 10-4.478 10-10s-4.478-10-10-10zm48-48h-71c-5.522 0-10 4.478-10 10s4.478 10 10 10h71c5.522 0 10-4.478 10-10s-4.478-10-10-10zm0-93.873h-71c-5.522 0-10 4.477-10 10 0 5.522 4.478 10 10 10h71c5.522 0 10-4.478 10-10 0-5.523-4.478-10-10-10zM427 292h-71c-5.522 0-10 4.478-10 10s4.478 10 10 10h71c5.522 0 10-4.478 10-10s-4.478-10-10-10z"/></svg>