<svg xmlns="http://www.w3.org/2000/svg" viewBox="0 0 512 512"><path d="M496.156 465.036l-31.113 31.113c-7.81 7.81-20.474 7.81-28.284 0L116.761 176.152c-7.81-7.81-7.81-20.474 0-28.284l31.113-31.113c7.81-7.81 20.474-7.81 28.284 0l319.997 319.997c7.811 7.811 7.811 20.474.001 28.284z" fill="#72d8ff"/><path d="M237.622 178.218l-61.464-61.464c-7.81-7.81-20.474-7.81-28.284 0l-31.113 31.113c-7.81 7.81-7.81 20.474 0 28.284l61.464 61.464 59.397-59.397z" fill="#ff5d5d"/><path d="M363.262 313.858c2.63 0 5.21-1.07 7.07-2.93 1.86-1.86 2.93-4.44 2.93-7.07s-1.07-5.21-2.93-7.07c-1.86-1.86-4.44-2.93-7.07-2.93s-5.21 1.07-7.07 2.93a10.058 10.058 0 0 0-2.93 7.07c0 2.63 1.07 5.21 2.93 7.07a10.074 10.074 0 0 0 7.07 2.93z"/><path d="M503.227 429.681L399.28 325.734c-3.905-3.905-10.237-3.905-14.143 0-3.905 3.905-3.905 10.237 0 14.143l103.946 103.946c3.899 3.899 3.899 10.243 0 14.142l-31.112 31.113c-3.899 3.899-10.244 3.899-14.142 0L192.965 238.214l45.256-45.256 88.668 88.668c3.905 3.904 10.237 3.904 14.143 0 3.905-3.905 3.905-10.237 0-14.142l-95.735-95.735-.005-.005-.005-.005-62.057-62.057c-5.666-5.666-13.2-8.787-21.213-8.787-8.014 0-15.547 3.121-21.213 8.787l-31.113 31.112c-11.697 11.697-11.697 30.73 0 42.428L429.687 503.22c5.849 5.848 13.531 8.772 21.213 8.772s15.365-2.924 21.213-8.772l31.113-31.113c11.698-11.697 11.698-30.729.001-42.426zM123.832 154.939l31.113-31.113a9.932 9.932 0 0 1 7.071-2.929 9.934 9.934 0 0 1 7.071 2.929l54.991 54.991-45.256 45.256-54.991-54.991c-3.898-3.9-3.898-10.244.001-14.143zm284.181-67.126c5.523 0 10-4.477 10-10V64.002c0-5.523-4.477-10-10-10s-10 4.477-10 10v13.811c-.001 5.523 4.477 10 10 10zm0 66.19c5.523 0 10-4.477 10-10v-13.811c0-5.523-4.477-10-10-10s-10 4.477-10 10v13.811c-.001 5.523 4.477 10 10 10zm26.189-40.001h13.811c5.523 0 10-4.477 10-10s-4.477-10-10-10h-13.811c-5.523 0-10 4.477-10 10s4.477 10 10 10zm-66.19 0h13.811c5.523 0 10-4.477 10-10s-4.477-10-10-10h-13.811c-5.523 0-10 4.477-10 10s4.477 10 10 10zM104.008 358.006c-5.523 0-10 4.477-10 10v13.811c0 5.523 4.477 10 10 10s10-4.477 10-10v-13.811c.001-5.523-4.476-10-10-10zm0 66.19c-5.523 0-10 4.477-10 10v13.811c0 5.523 4.477 10 10 10s10-4.477 10-10v-13.811c.001-5.523-4.476-10-10-10zm40.001-26.19h-13.811c-5.523 0-10 4.477-10 10s4.477 10 10 10h13.811c5.523 0 10-4.477 10-10s-4.477-10-10-10zm-66.19 0H64.008c-5.523 0-10 4.477-10 10s4.477 10 10 10h13.811c5.523 0 10-4.477 10-10s-4.477-10-10-10zM65.214 79.365a9.968 9.968 0 0 0 7.071 2.929 9.97 9.97 0 0 0 7.071-2.929c3.905-3.905 3.905-10.237 0-14.142L17.078 2.944C13.172-.962 6.841-.96 2.936 2.944c-3.905 3.905-3.906 10.237 0 14.142l62.278 62.279zm42.354 28.22c1.87-1.87 2.93-4.44 2.93-7.08 0-2.63-1.06-5.21-2.93-7.07a10.058 10.058 0 0 0-7.07-2.93c-2.63 0-5.21 1.07-7.07 2.93s-2.93 4.44-2.93 7.07a10.1 10.1 0 0 0 2.93 7.08c1.87 1.86 4.44 2.92 7.07 2.92 2.64 0 5.21-1.06 7.07-2.92zm-49.06 12.421c0-5.523-4.477-10-10-10H10c-5.523 0-10 4.477-10 10s4.477 10 10 10h38.508c5.523 0 10-4.477 10-10zm61.534-58.066h.003c5.523-.001 9.999-4.48 9.997-10.003l-.013-41.932c-.001-5.522-4.479-9.997-10-9.997h-.003c-5.523.001-9.999 4.48-9.997 10.003l.013 41.932c.002 5.522 4.479 9.997 10 9.997z"/></svg>