<svg height="511pt" viewBox="1 -14 511.999 511" width="511pt" xmlns="http://www.w3.org/2000/svg"><path d="M238.305 377.941h35.394v75.207h-35.394zm0 0" fill="#3e4151"/><path d="M238.305 377.941h20.601v75.207h-20.601zm0 0" fill="#353744"/><path d="M473.648.5H38.352C17.203.5 0 17.703 0 38.852V345.82c0 21.145 17.203 38.348 38.352 38.348h435.296c21.149 0 38.352-17.203 38.352-38.348V38.852C512 17.703 494.797.5 473.648.5zm0 0" fill="#525468"/><path d="M20.605 345.82V38.852C20.605 17.703 37.81.5 58.957.5H38.352C17.203.5 0 17.703 0 38.852V345.82c0 21.145 17.203 38.352 38.352 38.352h20.605c-21.148 0-38.352-17.207-38.352-38.352zm0 0" fill="#3e4151"/><path d="M473.648 35.895H38.352c-1.575 0-2.957 1.382-2.957 2.957V345.82c0 1.575 1.382 2.957 2.957 2.957h435.296c1.575 0 2.957-1.382 2.957-2.957V38.852c0-1.575-1.382-2.957-2.957-2.957zm0 0" fill="#b4e1f9"/><path d="M56 345.82V38.852c0-1.575 1.383-2.957 2.957-2.957H38.352c-1.575 0-2.957 1.382-2.957 2.957V345.82c0 1.575 1.382 2.957 2.957 2.957h20.605c-1.574 0-2.957-1.382-2.957-2.957zm0 0" fill="#72bdf6"/><path d="M364.113 447.902H147.887c-9.489 0-17.176 7.692-17.176 17.176v1.043c0 9.484 7.687 17.176 17.176 17.176h216.226c9.489 0 17.176-7.692 17.176-17.176v-1.043c0-9.484-7.687-17.176-17.176-17.176zm0 0" fill="#525468"/><path d="M364.113 462.691H147.887c-5.852 0-11.008-2.93-14.11-7.394a17.08 17.08 0 0 0-3.066 9.781v1.043c0 9.484 7.687 17.176 17.176 17.176h216.226c9.489 0 17.176-7.692 17.176-17.176v-1.043a17.08 17.08 0 0 0-3.066-9.781c-3.102 4.465-8.258 7.394-14.11 7.394zm0 0" fill="#3e4151"/><path d="M473.648 33.836H38.352c-1.575 0-2.957 1.379-2.957 2.957V69.23h441.21V36.793c0-1.578-1.382-2.957-2.957-2.957zm0 0" fill="#4b98d4"/><path d="M70.79 33.836H38.351c-1.575 0-2.957 1.379-2.957 2.957V69.23h35.394zm0 0" fill="#ed5454"/><path d="M58.914 33.836H38.352c-1.575 0-2.957 1.379-2.957 2.957V69.23h20.562V36.793c0-1.578 1.383-2.957 2.957-2.957zm0 0" fill="#ea3f3f"/><path d="M139.414 214.848a4.784 4.784 0 0 1 0-6.77l50.29-50.289c5.882-5.883 5.71-15.523-.517-21.187-5.828-5.305-14.906-4.793-20.476.78l-63.73 63.731c-5.72 5.715-5.72 14.98 0 20.7l63.73 63.73c5.57 5.574 14.648 6.086 20.476.781 6.227-5.66 6.399-15.304.516-21.187zm266.75-13.735l-63.879-63.883c-5.883-5.882-15.523-5.71-21.187.512-5.305 5.828-4.793 14.906.78 20.48l49.376 49.38a5.46 5.46 0 0 1 0 7.722l-49.375 49.38c-5.574 5.573-6.086 14.651-.781 20.48 5.664 6.222 15.304 6.39 21.187.511l63.88-63.883c5.718-5.718 5.718-14.984 0-20.699zM214.79 306.035c-7.411-3.23-10.802-11.855-7.571-19.265l70.726-162.31c3.227-7.41 11.856-10.8 19.266-7.57 7.41 3.227 10.8 11.856 7.57 19.266l-70.726 162.309c-3.23 7.414-11.86 10.797-19.266 7.57zm0 0" fill="#4b98d4"/><path d="M189.316 285.543l-63.73-63.73c-5.719-5.72-5.719-14.985 0-20.7l63.73-63.734c.11-.11.227-.203.34-.309-.156-.156-.3-.32-.469-.472-5.828-5.301-14.906-4.79-20.476.78l-63.73 63.735c-5.72 5.715-5.72 14.98 0 20.7l63.73 63.73c5.57 5.574 14.648 6.086 20.476.781.168-.152.313-.316.47-.472-.114-.106-.231-.2-.34-.309zm152.387-.359c-5.308-5.832-4.793-14.907.777-20.48l49.38-49.38a5.465 5.465 0 0 0 0-7.726l-49.38-49.375c-5.57-5.575-6.082-14.653-.777-20.48.176-.196.363-.364.547-.544-5.887-5.847-15.5-5.668-21.152.543-5.305 5.828-4.793 14.906.78 20.48l49.376 49.376a5.465 5.465 0 0 1 0 7.726l-49.375 49.38c-5.574 5.57-6.086 14.648-.781 20.48 5.652 6.21 15.265 6.39 21.152.539-.184-.18-.371-.348-.547-.54zm-113.879 1.586l70.727-162.31a14.553 14.553 0 0 1 3.113-4.534 14.513 14.513 0 0 0-4.453-3.035c-7.41-3.23-16.035.16-19.266 7.57L207.22 286.77c-3.23 7.41.16 16.035 7.57 19.265 5.656 2.465 12.02 1.063 16.152-3.035-4.16-4.129-5.601-10.535-3.117-16.23zm0 0" fill="#2472b2"/></svg>