<svg height="512pt" viewBox="0 -23 512 512" width="512pt" xmlns="http://www.w3.org/2000/svg"><path d="M504.39 38.645v387.73c0 17.145-13.89 31.04-31.038 31.04H38.645c-17.149 0-31.04-13.895-31.04-31.04V38.645c0-17.149 13.891-31.04 31.04-31.04h434.707c17.148 0 31.039 13.891 31.039 31.04zm0 0" fill="#e6e6e6"/><path d="M504.39 38.645v37.078H7.606V38.645c0-17.149 13.891-31.04 31.04-31.04h434.707c17.148 0 31.039 13.891 31.039 31.04zm0 0" fill="#75b2cc"/><path d="M45.117 115.055h121.059v294.02H45.117zm0 0" fill="#74dbad"/><path d="M195.465 115.055h121.062v294.02H195.465zm0 0" fill="#f25f5f"/><path d="M345.82 115.055h121.06v294.02H345.82zm0 0" fill="#f4c84d"/><path d="M55.734 41.102c-1.203-2.864-4.09-4.77-7.21-4.688-3.106.078-5.93 2.106-6.97 5.035-1.066 3-.12 6.414 2.333 8.438 2.547 2.101 6.297 2.281 9.043.453 3-2.004 4.136-5.906 2.804-9.238zm59.891 0c-2.54-6.329-11.887-6.016-14.18.347-1.11 3.086-.039 6.645 2.57 8.625 2.485 1.887 5.977 2.031 8.618.383 3.097-1.934 4.414-5.977 2.992-9.355zm-29.949 0c-2.563-6.055-11.516-6.18-14.043 0-1.258 3.07-.356 6.675 2.203 8.785 2.445 2.02 5.988 2.27 8.707.652 3.191-1.894 4.578-6 3.133-9.437zm0 0"/><path d="M512 75.723c0-.028-.004-.055-.004-.082V38.645C511.996 17.335 494.66 0 473.352 0H38.645C17.335 0 0 17.336 0 38.645v387.73c0 21.309 17.336 38.645 38.645 38.645h7.535a7.604 7.604 0 0 0 7.601-7.606 7.6 7.6 0 0 0-7.601-7.601h-7.535c-12.922 0-23.438-10.516-23.438-23.438V83.325h481.582v343.05c0 12.922-10.516 23.434-23.437 23.434H76.598a7.607 7.607 0 0 0-7.606 7.605c0 4.2 3.406 7.606 7.606 7.606h396.754c21.308 0 38.644-17.336 38.644-38.645V75.801c0-.028.004-.055.004-.078zM15.207 68.117V38.645c0-12.922 10.516-23.438 23.438-23.438h434.707c12.921 0 23.437 10.516 23.437 23.438v29.472zm0 0"/><path d="M173.781 409.074v-294.02a7.604 7.604 0 0 0-7.605-7.605H45.117a7.604 7.604 0 0 0-7.605 7.606v294.02a7.6 7.6 0 0 0 7.605 7.6h121.059a7.601 7.601 0 0 0 7.605-7.6zm-15.207-7.605H52.72V122.66h105.855zm157.957 15.207a7.6 7.6 0 0 0 7.602-7.602v-294.02a7.604 7.604 0 0 0-7.602-7.605H195.47a7.604 7.604 0 0 0-7.606 7.606v294.02c0 4.198 3.403 7.6 7.606 7.6zM203.071 122.66h105.855v278.81H203.07zm263.808 91.86a7.604 7.604 0 0 0 7.605-7.606v-91.86a7.604 7.604 0 0 0-7.605-7.605H345.82a7.604 7.604 0 0 0-7.605 7.606v294.02a7.6 7.6 0 0 0 7.605 7.6h121.06a7.601 7.601 0 0 0 7.605-7.6V237.331a7.604 7.604 0 1 0-15.207 0v164.137H353.422V122.66h105.855v84.254c0 4.2 3.403 7.606 7.602 7.606zm0 0"/><path d="M80.012 302.379c0 2.957 2.601 6.125 6.468 6.125 2.274 0 4.415-1.192 5.211-2.899l39.86-81.648c.387-.77.469-1.625.469-2.207 0-3.668-3.52-6.129-6.81-6.129-2.226 0-4.003 1.059-4.87 2.902l-39.75 81.645c-.367.738-.578 1.543-.578 2.21zm-.212-35.207c5.15 0 9.231-1.164 12.141-3.465 3.301-2.613 4.973-6.633 4.973-11.95v-16.081c0-5.313-1.672-9.332-4.973-11.946-2.906-2.3-6.992-3.468-12.14-3.468-14.145 0-17.114 8.383-17.114 15.414v16.082c0 7.035 2.97 15.414 17.114 15.414zm5.536-15.414c0 3.476-1.914 5.308-5.535 5.308-3.598 0-5.422-1.785-5.422-5.308V235.68c0-3.524 1.824-5.309 5.422-5.309 3.62 0 5.535 1.836 5.535 5.309zm29.328 20.382v16.083c0 7.03 2.973 15.414 17.113 15.414 5.149 0 9.235-1.164 12.141-3.469 3.3-2.61 4.973-6.633 4.973-11.945V272.14c0-5.313-1.672-9.332-4.973-11.946-2.906-2.3-6.992-3.468-12.14-3.468-14.145 0-17.114 8.382-17.114 15.414zm11.691 0c0-3.523 1.825-5.308 5.422-5.308 3.621 0 5.536 1.836 5.536 5.309v16.082c0 3.472-1.915 5.308-5.536 5.308-3.597 0-5.422-1.785-5.422-5.308zm259.5 36.364c2.27 0 4.415-1.192 5.208-2.899l39.863-81.648c.383-.77.465-1.625.465-2.207 0-3.668-3.52-6.129-6.809-6.129-2.227 0-4 1.059-4.871 2.902l-39.746 81.645c-.367.738-.578 1.543-.578 2.21 0 2.958 2.597 6.126 6.468 6.126zm45.297-4.867c5.149 0 9.23-1.164 12.137-3.469 3.305-2.61 4.977-6.633 4.977-11.945V272.14c0-5.313-1.672-9.332-4.977-11.946-2.902-2.3-6.988-3.468-12.137-3.468-14.144 0-17.113 8.382-17.113 15.414v16.082c0 7.03 2.969 15.414 17.113 15.414zm5.536-15.414c0 3.472-1.915 5.308-5.536 5.308-3.597 0-5.422-1.785-5.422-5.308V272.14c0-3.524 1.825-5.309 5.422-5.309 3.621 0 5.536 1.836 5.536 5.309zm-40.403-36.465V235.68c0-5.317-1.672-9.336-4.973-11.95-2.906-2.3-6.992-3.468-12.14-3.468-14.145 0-17.113 8.383-17.113 15.418v16.078c0 7.035 2.968 15.414 17.113 15.414 5.148 0 9.234-1.164 12.14-3.465 3.301-2.613 4.973-6.633 4.973-11.95zM373.75 235.68c0-3.524 1.824-5.309 5.422-5.309 3.625 0 5.539 1.836 5.539 5.309v16.078c0 3.476-1.914 5.308-5.54 5.308-3.597 0-5.421-1.785-5.421-5.308zm-102.07 86.699c-7.145 0-12.817 2.426-17.344 7.41-3.902 4.297-6.309 9.75-8.43 14.563-2.668 6.054-4.777 10.835-8.691 10.835-2.942 0-6.086-2.683-6.086-10.222 0-5.07 1.41-7.793 2.547-9.98.742-1.438 1.387-2.68 1.387-4.196 0-4.57-5.704-6.547-8.614-6.547-3.539 0-6.133 2.805-7.703 8.332-1.418 5.004-1.531 10.75-1.531 12.39 0 7.075 1.746 13.528 4.914 18.173 3.77 5.527 9.523 8.449 16.637 8.449 14.168 0 19.441-11.344 23.675-20.461 3.079-6.625 5.735-12.344 10.895-12.344 4.95 0 6.703 5.34 6.703 9.91 0 5.582-2.64 9.016-4.766 11.77-1.55 2.02-2.894 3.762-2.894 5.824 0 4.09 5.351 7.168 8.82 7.168 7.11 0 13.582-11.95 13.582-25.07 0-7.61-2.05-14.059-5.93-18.649-4.066-4.812-10.003-7.355-17.171-7.355zm-48.992-23.039l63.14 19.254c.41.101.84.21 1.168.21 3.738 0 6.75-5.734 6.75-10.476 0-2.957-1.07-4.824-3.094-5.402l-12.843-3.492v-21.645l12.843-3.492c2.024-.578 3.094-2.445 3.094-5.402 0-4.747-3.012-10.477-6.75-10.477-.328 0-.754.11-1.176.215l-63.132 19.351c-4.04 1.27-5.473 6.547-5.473 10.68s1.433 9.406 5.472 10.676zm15.32-10.676l27.129-7.39v14.777zm-15.18-37.031h65.824c2.453 0 5.094-2.242 5.094-7.164v-32.703c0-2.305-2.242-4.786-7.164-4.786s-7.164 2.48-7.164 4.786v23.468h-56.59c-2.305 0-4.992 2.149-4.992 8.2 0 6.05 2.687 8.199 4.992 8.199zm.102-51.957h65.722c2.453 0 5.094-2.242 5.094-7.164v-36.844c0-2.484-2.184-4.992-7.062-4.992-4.278 0-7.266 2.05-7.266 4.992v27.61h-17.344v-15.4c0-1.593-.71-2.913-2.058-3.815-1.114-.747-2.633-1.176-4.172-1.176-3.203 0-6.442 1.715-6.442 4.992v15.398h-17.238v-27.609c0-2.941-2.988-4.992-7.27-4.992-4.878 0-7.058 2.508-7.058 4.992v36.844c0 4.922 2.64 7.164 5.094 7.164zm0 0"/></svg>